<svg width="8" height="10" viewBox="0 0 8 10" fill="none" xmlns="http://www.w3.org/2000/svg">
<path d="M7.98337 4.17357C7.94443 4.0693 7.8447 3.99997 7.73324 3.99997H4.51326L6.37058 0.388797C6.42898 0.275198 6.39884 0.136266 6.29831 0.0573329C6.24978 0.0189332 6.19138 0 6.13325 0C6.07111 0 6.00898 0.0218665 5.95911 0.0647995L3.99993 1.75679L0.0924891 5.13143C0.00822301 5.20423 -0.0221768 5.32183 0.0167563 5.4261C0.0556894 5.53036 0.155155 5.59996 0.266621 5.59996H3.4866L1.62928 9.21114C1.57088 9.32473 1.60101 9.46367 1.70154 9.5426C1.75008 9.581 1.80848 9.59993 1.86661 9.59993C1.92874 9.59993 1.99088 9.57807 2.04074 9.53513L3.99993 7.84315L7.90737 4.4685C7.9919 4.3957 8.02203 4.2781 7.98337 4.17357Z" fill="#FFAC33"/>
</svg>
