<svg width="18" height="18" viewBox="0 0 18 18" fill="none" xmlns="http://www.w3.org/2000/svg">
<path d="M4.6275 13.4999C4.78245 13.0607 5.0698 12.6805 5.44995 12.4115C5.8301 12.1425 6.28432 11.998 6.75 11.998C7.21568 11.998 7.6699 12.1425 8.05005 12.4115C8.4302 12.6805 8.71755 13.0607 8.8725 13.4999H16.5V14.9999H8.8725C8.71755 15.439 8.4302 15.8193 8.05005 16.0883C7.6699 16.3573 7.21568 16.5017 6.75 16.5017C6.28432 16.5017 5.8301 16.3573 5.44995 16.0883C5.0698 15.8193 4.78245 15.439 4.6275 14.9999H1.5V13.4999H4.6275ZM9.1275 8.24989C9.28245 7.81074 9.5698 7.43046 9.94995 7.16148C10.3301 6.89249 10.7843 6.74805 11.25 6.74805C11.7157 6.74805 12.1699 6.89249 12.5501 7.16148C12.9302 7.43046 13.2175 7.81074 13.3725 8.24989H16.5V9.74989H13.3725C13.2175 10.189 12.9302 10.5693 12.5501 10.8383C12.1699 11.1073 11.7157 11.2517 11.25 11.2517C10.7843 11.2517 10.3301 11.1073 9.94995 10.8383C9.5698 10.5693 9.28245 10.189 9.1275 9.74989H1.5V8.24989H9.1275ZM4.6275 2.99988C4.78245 2.56073 5.0698 2.18046 5.44995 1.91148C5.8301 1.64249 6.28432 1.49805 6.75 1.49805C7.21568 1.49805 7.6699 1.64249 8.05005 1.91148C8.4302 2.18046 8.71755 2.56073 8.8725 2.99988H16.5V4.49988H8.8725C8.71755 4.93903 8.4302 5.31931 8.05005 5.58829C7.6699 5.85728 7.21568 6.00172 6.75 6.00172C6.28432 6.00172 5.8301 5.85728 5.44995 5.58829C5.0698 5.31931 4.78245 4.93903 4.6275 4.49988H1.5V2.99988H4.6275Z" fill="#878787"/>
</svg>
