<svg width="25" height="24" viewBox="0 0 25 24" fill="none" xmlns="http://www.w3.org/2000/svg">
<g clip-path="url(#clip0_4723_2760)">
<path d="M14.9438 0.931152C10.1238 0.931152 6.21384 4.65115 6.21384 9.22115V9.63115C6.22384 9.84115 6.41384 9.99115 6.63384 9.98115C6.85384 9.97115 7.02384 9.79115 7.00384 9.58115C7.00384 9.46115 7.00384 9.34115 7.00384 9.23115C7.00384 5.07115 10.5638 1.69115 14.9438 1.69115C19.3238 1.69115 22.8738 5.07115 22.8738 9.23115C22.8738 13.7512 16.4138 21.0212 14.9438 22.6112L14.5438 22.1712C14.4038 22.0112 14.1538 22.0012 13.9838 22.1312C13.8238 22.2712 13.8038 22.5012 13.9438 22.6612C14.3838 23.1512 14.6538 23.4212 14.6538 23.4212C14.7238 23.5012 14.8338 23.5412 14.9438 23.5412C15.0538 23.5412 15.1638 23.5012 15.2338 23.4212C15.5838 23.0712 23.6738 14.6112 23.6738 9.22115C23.6738 4.65115 19.7638 0.931152 14.9438 0.931152Z" fill="#484C52"/>
<path d="M6.21384 9.22115V9.63115C6.22384 9.84115 6.41384 9.99115 6.63384 9.98115C6.85384 9.97115 7.02384 9.79115 7.00384 9.58115C7.00384 9.46115 7.00384 9.34115 7.00384 9.23115C7.00384 5.07115 10.5638 1.69115 14.9438 1.69115C19.3238 1.69115 22.8738 5.07115 22.8738 9.23115C22.8738 13.7512 16.4138 21.0212 14.9438 22.6112L14.5438 22.1712C14.4038 22.0112 14.1538 22.0012 13.9838 22.1312C13.8238 22.2712 13.8038 22.5012 13.9438 22.6612C14.3838 23.1512 14.6538 23.4212 14.6538 23.4212C14.7238 23.5012 14.8338 23.5412 14.9438 23.5412C15.0538 23.5412 15.1638 23.5012 15.2338 23.4212C15.5838 23.0712 23.6738 14.6112 23.6738 9.22115C23.6738 4.65115 19.7638 0.931152 14.9438 0.931152C10.1238 0.931152 6.21384 4.65115 6.21384 9.22115Z" stroke="#484C52" stroke-width="0.9"/>
<path d="M15.3738 11.4912C16.8838 11.4912 18.1138 10.2612 18.1138 8.74121C18.1138 7.22121 16.8838 5.99121 15.3738 5.99121C13.8538 5.99121 12.6238 7.22121 12.6238 8.74121C12.6238 10.2612 13.8538 11.4912 15.3738 11.4912ZM15.3738 6.68121C16.5038 6.68121 17.4338 7.60121 17.4338 8.74121C17.4338 9.88121 16.5038 10.8012 15.3738 10.8012C14.2338 10.8012 13.3038 9.88121 13.3038 8.74121C13.3038 7.60121 14.2338 6.68121 15.3738 6.68121Z" fill="#484C52"/>
<path d="M18.1138 8.74121C18.1138 7.22121 16.8838 5.99121 15.3738 5.99121C13.8538 5.99121 12.6238 7.22121 12.6238 8.74121C12.6238 10.2612 13.8538 11.4912 15.3738 11.4912C16.8838 11.4912 18.1138 10.2612 18.1138 8.74121ZM17.4338 8.74121C17.4338 9.88121 16.5038 10.8012 15.3738 10.8012C14.2338 10.8012 13.3038 9.88121 13.3038 8.74121C13.3038 7.60121 14.2338 6.68121 15.3738 6.68121C16.5038 6.68121 17.4338 7.60121 17.4338 8.74121Z" stroke="#484C52" stroke-width="0.9"/>
<path d="M11.6338 15.1111L7.65384 12.2111C6.99384 11.7311 6.11384 11.7311 5.46384 12.2111L1.48384 15.1111C1.00384 15.4611 0.723837 16.0211 0.713837 16.6211V21.6911C0.723837 22.7111 1.55384 23.5411 2.57384 23.5411H4.08384C4.69384 23.5411 5.18384 23.0511 5.18384 22.4411V19.8411C5.18384 19.6111 5.37384 19.4211 5.60384 19.4211H7.52384C7.74384 19.4211 7.93384 19.6111 7.93384 19.8411V22.4411C7.93384 23.0511 8.42384 23.5411 9.03384 23.5411H10.5338C11.5638 23.5411 12.3938 22.7111 12.3938 21.6911V16.6211C12.3938 16.0211 12.1138 15.4611 11.6338 15.1111ZM11.7138 21.6911C11.7038 22.3311 11.1838 22.8611 10.5338 22.8611H9.03384C8.80384 22.8611 8.61384 22.6711 8.61384 22.4411V19.8411C8.61384 19.2311 8.12384 18.7411 7.52384 18.7411H5.60384C4.99384 18.7411 4.49384 19.2311 4.49384 19.8411V22.4411C4.49384 22.6711 4.31384 22.8611 4.08384 22.8611H2.57384C1.93384 22.8611 1.40384 22.3311 1.40384 21.6911V16.6211C1.40384 16.2411 1.58384 15.8911 1.89384 15.6711L5.87384 12.7811C6.28384 12.4811 6.83384 12.4811 7.24384 12.7811L11.2238 15.6711C11.5338 15.8911 11.7038 16.2411 11.7138 16.6211V21.6911Z" fill="#484C52"/>
<path d="M7.65384 12.2111C6.99384 11.7311 6.11384 11.7311 5.46384 12.2111L1.48384 15.1111C1.00384 15.4611 0.723837 16.0211 0.713837 16.6211V21.6911C0.723837 22.7111 1.55384 23.5411 2.57384 23.5411H4.08384C4.69384 23.5411 5.18384 23.0511 5.18384 22.4411V19.8411C5.18384 19.6111 5.37384 19.4211 5.60384 19.4211H7.52384C7.74384 19.4211 7.93384 19.6111 7.93384 19.8411V22.4411C7.93384 23.0511 8.42384 23.5411 9.03384 23.5411H10.5338C11.5638 23.5411 12.3938 22.7111 12.3938 21.6911V16.6211C12.3938 16.0211 12.1138 15.4611 11.6338 15.1111L7.65384 12.2111ZM10.5338 22.8611H9.03384C8.80384 22.8611 8.61384 22.6711 8.61384 22.4411V19.8411C8.61384 19.2311 8.12384 18.7411 7.52384 18.7411H5.60384C4.99384 18.7411 4.49384 19.2311 4.49384 19.8411V22.4411C4.49384 22.6711 4.31384 22.8611 4.08384 22.8611H2.57384C1.93384 22.8611 1.40384 22.3311 1.40384 21.6911V16.6211C1.40384 16.2411 1.58384 15.8911 1.89384 15.6711L5.87384 12.7811C6.28384 12.4811 6.83384 12.4811 7.24384 12.7811L11.2238 15.6711C11.5338 15.8911 11.7038 16.2411 11.7138 16.6211V21.6911C11.7038 22.3311 11.1838 22.8611 10.5338 22.8611Z" stroke="#484C52" stroke-width="0.9"/>
</g>
<defs>
<clipPath id="clip0_4723_2760">
<rect width="23.8523" height="23.5088" fill="white" transform="translate(0.273834 0.491211)"/>
</clipPath>
</defs>
</svg>
